<svg width="22" height="21" viewBox="0 0 22 21" fill="none" xmlns="http://www.w3.org/2000/svg">
<path d="M7 19.7448V5.74475C7 4.81478 7 4.34979 7.10222 3.96829C7.37962 2.93302 8.18827 2.12437 9.22354 1.84697C9.60504 1.74475 10.07 1.74475 11 1.74475C11.93 1.74475 12.395 1.74475 12.7765 1.84697C13.8117 2.12437 14.6204 2.93302 14.8978 3.96829C15 4.34979 15 4.81478 15 5.74475V19.7448M4.2 19.7448H17.8C18.9201 19.7448 19.4802 19.7448 19.908 19.5268C20.2843 19.335 20.5903 19.0291 20.782 18.6527C21 18.2249 21 17.6649 21 16.5448V8.94475C21 7.82465 21 7.26459 20.782 6.83677C20.5903 6.46045 20.2843 6.15448 19.908 5.96274C19.4802 5.74475 18.9201 5.74475 17.8 5.74475H4.2C3.07989 5.74475 2.51984 5.74475 2.09202 5.96274C1.71569 6.15448 1.40973 6.46045 1.21799 6.83677C1 7.26459 1 7.82465 1 8.94475V16.5448C1 17.6649 1 18.2249 1.21799 18.6527C1.40973 19.0291 1.71569 19.335 2.09202 19.5268C2.51984 19.7448 3.0799 19.7448 4.2 19.7448Z" stroke="white" stroke-width="2" stroke-linecap="round" stroke-linejoin="round"/>
</svg>